<!DOCTYPE svg PUBLIC "-//W3C//DTD SVG 1.1//EN" "http://www.w3.org/Graphics/SVG/1.1/DTD/svg11.dtd">
<!-- Uploaded to: SVG Repo, www.svgrepo.com, Transformed by: SVG Repo Mixer Tools -->
<svg width="155px" height="155px" viewBox="-1.8 -1.8 21.60 21.60" xmlns="http://www.w3.org/2000/svg" fill="#000000" stroke="#000000" stroke-width="0.00018">
<g id="SVGRepo_bgCarrier" stroke-width="0"/>
<g id="SVGRepo_tracerCarrier" stroke-linecap="round" stroke-linejoin="round" stroke="#CCCCCC" stroke-width="0.21600000000000003"/>
<g id="SVGRepo_iconCarrier"> <path fill="#000000" d="M16 0H2a2.006 2.006 0 0 0-2 2v14a2.006 2.006 0 0 0 2 2h14a2.006 2.006 0 0 0 2-2V2a2.006 2.006 0 0 0-2-2zm0 16h-2v-.86A3.154 3.154 0 0 0 10.85 12h-.53a4.167 4.167 0 0 1 .85-2 4.007 4.007 0 0 0 .77-2.41C11.94 5.61 10.62 4 9 4S6.06 5.61 6.06 7.59A4.007 4.007 0 0 0 6.83 10a4.167 4.167 0 0 1 .85 2h-.57A3.126 3.126 0 0 0 4 15.14V16H2V2h14v14z"/> </g>
</svg>