<svg width="193" height="100" viewBox="0 0 193 100" fill="none" xmlns="http://www.w3.org/2000/svg">
<path d="M53.2685 62H29.7315C27.6706 62 26 63.3431 26 65C26 66.6569 27.6706 68 29.7315 68H53.2685C55.3294 68 57 66.6569 57 65C57 63.3431 55.3294 62 53.2685 62Z" fill="#E2E2E2"/>
<path d="M51.8704 71H32.1296C30.4012 71 29 72.1193 29 73.5C29 74.8807 30.4012 76 32.1296 76H51.8704C53.5988 76 55 74.8807 55 73.5C55 72.1193 53.5988 71 51.8704 71Z" fill="#E2E2E2"/>
<rect x="6" y="12.3125" width="71.5" height="78.375" rx="9.625" fill="#E8E7E7" fill-opacity="0.9"/>
<rect x="25" y="22" width="33" height="35" rx="3" fill="#BDBDBD"/>
<path d="M41.7473 41.8547C44.6856 41.8547 47.0677 38.9771 47.0677 35.4274C47.0677 31.8776 44.6856 29 41.7473 29C38.8089 29 36.4269 31.8776 36.4269 35.4274C36.4269 38.9771 38.8089 41.8547 41.7473 41.8547Z" fill="#E2E2E2"/>
<path fill-rule="evenodd" clip-rule="evenodd" d="M37.8335 41.855H33.6081C30.4235 41.855 37.0155 51.0943 41.5102 51.0943C46.0049 51.0943 53.1868 41.855 49.8841 41.855H45.6611C44.6888 43.0898 43.2952 43.8635 41.7473 43.8635C40.1994 43.8635 38.8058 43.0898 37.8335 41.855Z" fill="#E2E2E2"/>
<rect x="91" y="27" width="100" height="1" rx="0.5" fill="#E8E7E7" fill-opacity="0.87"/>
<rect x="91" y="70" width="100" height="1" rx="0.5" fill="#E8E7E7" fill-opacity="0.87"/>
<rect x="103.625" y="74.188" width="12.375" height="12.375" rx="6.1875" fill="#D9D9D9"/>
<rect x="121.5" y="74.188" width="12.375" height="12.375" rx="6.1875" fill="#D9D9D9"/>
<rect x="139.375" y="74.188" width="12.375" height="12.375" rx="6.1875" fill="#D9D9D9"/>
<rect x="92" y="37" width="24" height="6" rx="3" fill="#F5F5F5"/>
<rect x="121" y="37" width="41" height="6" rx="3" fill="#F5F5F5"/>
<rect x="92" y="46" width="24" height="6" rx="3" fill="#F5F5F5"/>
<rect x="121" y="46" width="41" height="6" rx="3" fill="#F5F5F5"/>
<path d="M125.779 18H93.5544C92.1436 18 91 19.169 91 20.6111C91 22.0532 92.1436 23.2222 93.5544 23.2222H109.667H125.779C127.19 23.2222 128.333 22.0532 128.333 20.6111C128.333 19.169 127.19 18 125.779 18Z" fill="#E2E2E2"/>
<path d="M125.779 61H93.5544C92.1436 61 91 62.169 91 63.6111C91 65.0532 92.1436 66.2222 93.5544 66.2222H109.667H125.779C127.19 66.2222 128.333 65.0532 128.333 63.6111C128.333 62.169 127.19 61 125.779 61Z" fill="#E2E2E2"/>
</svg>
