<svg width="193" height="100" viewBox="0 0 193 100" fill="none" xmlns="http://www.w3.org/2000/svg">
<rect x="6" y="12.3125" width="71.5" height="78.375" rx="9.625" fill="#E8E7E7" fill-opacity="0.9"/>
<rect x="94" y="13" width="92" height="16" rx="6.75" fill="#E8E7E7" fill-opacity="0.87"/>
<rect x="95.375" y="34.437" width="88" height="9.625" rx="4.8125" fill="#E8E7E7" fill-opacity="0.87"/>
<rect x="94" y="47" width="92" height="23" rx="6.75" fill="#E8E7E7" fill-opacity="0.87"/>
<rect x="103.625" y="74.188" width="12.375" height="12.375" rx="6.1875" fill="#D9D9D9"/>
<rect x="121.5" y="74.188" width="12.375" height="12.375" rx="6.1875" fill="#D9D9D9"/>
<rect x="139.375" y="74.188" width="12.375" height="12.375" rx="6.1875" fill="#D9D9D9"/>
<rect x="104" y="51" width="24" height="6" rx="3" fill="#F5F5F5"/>
<rect x="133" y="51" width="41" height="6" rx="3" fill="#F5F5F5"/>
<rect x="104" y="60" width="24" height="6" rx="3" fill="#F5F5F5"/>
<rect x="133" y="60" width="41" height="6" rx="3" fill="#F5F5F5"/>
<path d="M41.7018 67.1453C50.9259 67.1453 58.4035 59.5016 58.4035 50.0726C58.4035 40.6437 50.9259 33 41.7018 33C32.4776 33 25 40.6437 25 50.0726C25 59.5016 32.4776 67.1453 41.7018 67.1453Z" fill="#BDBDBD"/>
<path d="M41.8982 52.6838C45.3709 52.6838 48.186 49.8062 48.186 46.2565C48.186 42.7067 45.3709 39.8291 41.8982 39.8291C38.4256 39.8291 35.6105 42.7067 35.6105 46.2565C35.6105 49.8062 38.4256 52.6838 41.8982 52.6838Z" fill="#E2E2E2"/>
<path fill-rule="evenodd" clip-rule="evenodd" d="M37.2728 52.6841H32.2792C28.5156 52.6841 36.3061 61.9234 41.6181 61.9234C46.93 61.9234 55.4176 52.6841 51.5145 52.6841H46.5237C45.3746 53.9189 43.7276 54.6926 41.8983 54.6926C40.0689 54.6926 38.4219 53.9189 37.2728 52.6841Z" fill="#E2E2E2"/>
</svg>
