<svg width="193" height="100" viewBox="0 0 193 100" fill="none" xmlns="http://www.w3.org/2000/svg">
<path d="M101.197 40.9536C109.591 40.9536 116.395 34.0244 116.395 25.4768C116.395 16.9292 109.591 10 101.197 10C92.8041 10 86 16.9292 86 25.4768C86 34.0244 92.8041 40.9536 101.197 40.9536Z" fill="#BDBDBD"/>
<path d="M101.449 27.0921C104.122 27.0921 106.29 24.4834 106.29 21.2655C106.29 18.0476 104.122 15.439 101.449 15.439C98.775 15.439 96.6076 18.0476 96.6076 21.2655C96.6076 24.4834 98.775 27.0921 101.449 27.0921Z" fill="#E2E2E2"/>
<path fill-rule="evenodd" clip-rule="evenodd" d="M97.8875 27.0923H94.0427C91.145 27.0923 97.1431 35.468 101.233 35.468C105.323 35.468 111.858 27.0923 108.853 27.0923H105.01C104.125 28.2117 102.857 28.9131 101.449 28.9131C100.04 28.9131 98.7722 28.2117 97.8875 27.0923Z" fill="#E2E2E2"/>
<rect x="65" y="43" width="71" height="9" rx="4.5" fill="#E8E7E7" fill-opacity="0.87"/>
<path d="M131.142 55H69.8579C67.175 55 65 56.3431 65 58C65 59.6569 67.175 61 69.8579 61H100.5H131.142C133.825 61 136 59.6569 136 58C136 56.3431 133.825 55 131.142 55Z" fill="#E2E2E2"/>
<rect x="65" y="65" width="30" height="5" rx="2" fill="#F5F5F5"/>
<rect x="102" y="65" width="33" height="5" rx="2" fill="#F5F5F5"/>
<rect x="98" y="72" width="8" height="1" transform="rotate(-90 98 72)" fill="#E8E7E7" fill-opacity="0.87"/>
<rect x="75" y="78" width="12.375" height="11.9595" rx="5.97974" fill="#F1F1F1"/>
<rect x="92.875" y="78" width="12.375" height="11.9595" rx="5.97974" fill="#F1EDED"/>
<rect x="110.75" y="78" width="12.375" height="11.9595" rx="5.97974" fill="#EBEBEB"/>
</svg>
